<svg xmlns="http://www.w3.org/2000/svg" height="48" viewBox="0 -960 960 960" width="48" fill="#292D32"><path d="M479.975-490.391q-74.494 0-120.843-46.633-46.35-46.632-46.35-120.753 0-74.121 46.26-120.585 46.259-46.465 120.753-46.465t121.241 46.401q46.747 46.401 46.747 120.932 0 73.838-46.657 120.47-46.657 46.633-121.151 46.633ZM141.043-130v-112.841q0-42.684 21.64-73.899 21.639-31.216 56.013-47.434 68.434-32 132.474-47.218 64.039-15.217 128.523-15.217 65.568 0 128.872 16 63.305 16 131.66 46.629 35.825 15.603 57.561 46.832 21.736 31.229 21.736 74.16V-130H141.043Zm83.175-83.174h511.564v-27.522q0-15.634-9.102-29.893-9.102-14.26-22.724-20.237-62.174-29.87-114.345-40.957T479.437-342.87q-56.872 0-109.828 11.37-52.957 11.37-113.323 40.585-14.514 6.331-23.291 20.253-8.777 13.921-8.777 29.966v27.522Zm255.667-360.392q35.854 0 60.006-24.065t24.152-59.958q0-36.127-24.037-60.378-24.037-24.251-59.891-24.251t-60.006 24.277q-24.152 24.277-24.152 60.072 0 36.027 24.037 60.165 24.037 24.138 59.891 24.138Zm.115-84.043Zm0 444.435Z"/></svg>