<svg xmlns="http://www.w3.org/2000/svg" height="48" viewBox="0 -960 960 960" width="48" fill="#0096c7"><path d="M479.975-490.391q-74.494 0-120.843-46.633-46.35-46.632-46.35-120.753 0-74.121 46.26-120.585 46.259-46.465 120.753-46.465t121.241 46.401q46.747 46.401 46.747 120.932 0 73.838-46.657 120.47-46.657 46.633-121.151 46.633ZM141.043-130v-112.841q0-42.684 21.64-73.899 21.639-31.216 56.013-47.434 68.434-32 132.474-47.218 64.039-15.217 128.523-15.217 65.568 0 128.872 16 63.305 16 131.739 46.435 35.524 15.477 57.371 46.866t21.847 74.32V-130H141.043Z"/></svg>