<svg xmlns="http://www.w3.org/2000/svg" xmlns:xlink="http://www.w3.org/1999/xlink" width="100" zoomAndPan="magnify" viewBox="0 0 75 37.5" height="50" preserveAspectRatio="xMidYMid meet" version="1.0"><defs><g/><clipPath id="58b25ad106"><path d="M 4.941406 18.375 L 69.847656 18.375 L 69.847656 23.414062 L 4.941406 23.414062 Z M 4.941406 18.375 " clip-rule="nonzero"/></clipPath></defs><g fill="#0097b2" fill-opacity="1"><g transform="translate(8.152717, 28.687207)"><g><path d="M 16.828125 -6.234375 C 16.828125 -5.015625 16.617188 -3.984375 16.203125 -3.140625 C 15.796875 -2.296875 15.253906 -1.625 14.578125 -1.125 C 13.910156 -0.625 13.144531 -0.265625 12.28125 -0.046875 C 11.414062 0.171875 10.535156 0.28125 9.640625 0.28125 C 8.734375 0.28125 7.847656 0.171875 6.984375 -0.046875 C 6.128906 -0.265625 5.363281 -0.628906 4.6875 -1.140625 C 4.019531 -1.648438 3.476562 -2.320312 3.0625 -3.15625 C 2.644531 -3.988281 2.4375 -5.015625 2.4375 -6.234375 L 2.4375 -20.140625 L 3.890625 -20.140625 L 3.890625 -6.234375 C 3.890625 -5.203125 4.050781 -4.347656 4.375 -3.671875 C 4.695312 -3.003906 5.128906 -2.472656 5.671875 -2.078125 C 6.222656 -1.691406 6.84375 -1.414062 7.53125 -1.25 C 8.226562 -1.082031 8.929688 -1 9.640625 -1 C 10.367188 -1 11.070312 -1.082031 11.75 -1.25 C 12.425781 -1.414062 13.035156 -1.691406 13.578125 -2.078125 C 14.128906 -2.472656 14.566406 -3.003906 14.890625 -3.671875 C 15.222656 -4.347656 15.390625 -5.203125 15.390625 -6.234375 L 15.390625 -20.140625 L 16.828125 -20.140625 Z M 16.828125 -6.234375 "/></g></g></g><g fill="#0097b2" fill-opacity="1"><g transform="translate(27.427582, 28.687207)"><g><path d="M 5.125 0 L 0.859375 -14.390625 L 2.359375 -14.390625 L 5.84375 -2.59375 L 9.3125 -14.390625 L 10.8125 -14.390625 L 14.296875 -2.59375 L 17.78125 -14.390625 L 19.265625 -14.390625 L 15.015625 0 L 13.578125 0 L 10.0625 -11.90625 L 6.5625 0 Z M 5.125 0 "/></g></g></g><g fill="#0097b2" fill-opacity="1"><g transform="translate(47.565502, 28.687207)"><g><path d="M 16.828125 -6.234375 C 16.828125 -5.015625 16.617188 -3.984375 16.203125 -3.140625 C 15.796875 -2.296875 15.253906 -1.625 14.578125 -1.125 C 13.910156 -0.625 13.144531 -0.265625 12.28125 -0.046875 C 11.414062 0.171875 10.535156 0.28125 9.640625 0.28125 C 8.734375 0.28125 7.847656 0.171875 6.984375 -0.046875 C 6.128906 -0.265625 5.363281 -0.628906 4.6875 -1.140625 C 4.019531 -1.648438 3.476562 -2.320312 3.0625 -3.15625 C 2.644531 -3.988281 2.4375 -5.015625 2.4375 -6.234375 L 2.4375 -20.140625 L 3.890625 -20.140625 L 3.890625 -6.234375 C 3.890625 -5.203125 4.050781 -4.347656 4.375 -3.671875 C 4.695312 -3.003906 5.128906 -2.472656 5.671875 -2.078125 C 6.222656 -1.691406 6.84375 -1.414062 7.53125 -1.25 C 8.226562 -1.082031 8.929688 -1 9.640625 -1 C 10.367188 -1 11.070312 -1.082031 11.75 -1.25 C 12.425781 -1.414062 13.035156 -1.691406 13.578125 -2.078125 C 14.128906 -2.472656 14.566406 -3.003906 14.890625 -3.671875 C 15.222656 -4.347656 15.390625 -5.203125 15.390625 -6.234375 L 15.390625 -20.140625 L 16.828125 -20.140625 Z M 16.828125 -6.234375 "/></g></g></g><g clip-path="url(#58b25ad106)"><path fill="#ffffff" d="M 4.941406 18.375 L 69.839844 18.375 L 69.839844 23.414062 L 4.941406 23.414062 Z M 4.941406 18.375 " fill-opacity="1" fill-rule="nonzero"/></g><path fill="#ffffff" d="M 13.144531 18.746094 L 61.851562 18.746094 C 62.148438 18.746094 62.433594 18.867188 62.640625 19.074219 C 62.851562 19.285156 62.96875 19.566406 62.96875 19.863281 L 62.96875 22.09375 C 62.96875 22.386719 62.851562 22.671875 62.640625 22.878906 C 62.433594 23.089844 62.148438 23.207031 61.851562 23.207031 L 13.144531 23.207031 C 12.53125 23.207031 12.03125 22.707031 12.03125 22.09375 L 12.03125 19.863281 C 12.03125 19.246094 12.53125 18.746094 13.144531 18.746094 Z M 13.144531 18.746094 " fill-opacity="1" fill-rule="nonzero"/><g fill="#0097b2" fill-opacity="1"><g transform="translate(14.158505, 21.81988)"><g><path d="M 0.203125 0 L 0.203125 -1.9375 L 0.546875 -1.9375 L 0.546875 -1.125 L 1.46875 -1.125 L 1.46875 -1.9375 L 1.828125 -1.9375 L 1.828125 0 L 1.46875 0 L 1.46875 -0.828125 L 0.546875 -0.828125 L 0.546875 0 Z M 0.203125 0 "/></g></g></g><g fill="#0097b2" fill-opacity="1"><g transform="translate(18.254162, 21.81988)"><g><path d="M 1.0625 0.03125 C 0.863281 0.03125 0.691406 -0.00390625 0.546875 -0.078125 C 0.410156 -0.160156 0.304688 -0.269531 0.234375 -0.40625 C 0.160156 -0.550781 0.125 -0.726562 0.125 -0.9375 C 0.125 -1.132812 0.160156 -1.3125 0.234375 -1.46875 C 0.316406 -1.625 0.429688 -1.742188 0.578125 -1.828125 C 0.722656 -1.910156 0.894531 -1.953125 1.09375 -1.953125 C 1.269531 -1.953125 1.425781 -1.910156 1.5625 -1.828125 C 1.695312 -1.753906 1.800781 -1.644531 1.875 -1.5 C 1.945312 -1.363281 1.984375 -1.195312 1.984375 -1 C 1.984375 -0.789062 1.941406 -0.609375 1.859375 -0.453125 C 1.785156 -0.304688 1.675781 -0.1875 1.53125 -0.09375 C 1.394531 -0.0078125 1.238281 0.03125 1.0625 0.03125 Z M 1.046875 -0.296875 C 1.160156 -0.296875 1.257812 -0.320312 1.34375 -0.375 C 1.4375 -0.4375 1.503906 -0.519531 1.546875 -0.625 C 1.597656 -0.726562 1.625 -0.851562 1.625 -1 C 1.625 -1.195312 1.578125 -1.351562 1.484375 -1.46875 C 1.390625 -1.582031 1.257812 -1.640625 1.09375 -1.640625 C 0.96875 -1.640625 0.859375 -1.609375 0.765625 -1.546875 C 0.679688 -1.492188 0.613281 -1.410156 0.5625 -1.296875 C 0.507812 -1.191406 0.484375 -1.070312 0.484375 -0.9375 C 0.484375 -0.726562 0.53125 -0.566406 0.625 -0.453125 C 0.726562 -0.347656 0.867188 -0.296875 1.046875 -0.296875 Z M 1.046875 -0.296875 "/></g></g></g><g fill="#0097b2" fill-opacity="1"><g transform="translate(22.445168, 21.81988)"><g><path d="M 1.59375 -1.9375 L 1.5625 -1.625 L 0.953125 -1.625 L 0.953125 0 L 0.609375 0 L 0.609375 -1.625 L -0.015625 -1.625 L -0.015625 -1.9375 Z M 1.59375 -1.9375 "/></g></g></g><g fill="#0097b2" fill-opacity="1"><g transform="translate(26.083162, 21.81988)"><g><path d="M 1.4375 -1.625 L 0.546875 -1.625 L 0.546875 -1.125 L 1.390625 -1.125 L 1.390625 -0.828125 L 0.546875 -0.828125 L 0.546875 -0.296875 L 1.46875 -0.296875 L 1.453125 0 L 0.203125 0 L 0.203125 -1.9375 L 1.4375 -1.9375 Z M 1.4375 -1.625 "/></g></g></g><g fill="#0097b2" fill-opacity="1"><g transform="translate(29.696636, 21.81988)"><g><path d="M 0.203125 0 L 0.203125 -1.9375 L 0.546875 -1.9375 L 0.546875 -0.3125 L 1.40625 -0.3125 L 1.390625 0 Z M 0.203125 0 "/></g></g></g><g fill="#0097b2" fill-opacity="1"><g transform="translate(33.171179, 21.81988)"><g/></g></g><g fill="#0097b2" fill-opacity="1"><g transform="translate(35.907465, 21.81988)"><g><path d="M 0.203125 0 L 0.203125 -1.9375 L 0.84375 -1.9375 C 1.082031 -1.9375 1.265625 -1.890625 1.390625 -1.796875 C 1.523438 -1.703125 1.59375 -1.570312 1.59375 -1.40625 C 1.59375 -1.3125 1.570312 -1.226562 1.53125 -1.15625 C 1.488281 -1.082031 1.425781 -1.023438 1.34375 -0.984375 C 1.425781 -0.941406 1.492188 -0.882812 1.546875 -0.8125 C 1.597656 -0.738281 1.625 -0.648438 1.625 -0.546875 C 1.625 -0.378906 1.5625 -0.242188 1.4375 -0.140625 C 1.3125 -0.046875 1.144531 0 0.9375 0 Z M 0.84375 -1.640625 L 0.546875 -1.640625 L 0.546875 -1.125 L 0.84375 -1.125 C 0.976562 -1.125 1.078125 -1.144531 1.140625 -1.1875 C 1.210938 -1.226562 1.25 -1.296875 1.25 -1.390625 C 1.25 -1.472656 1.21875 -1.535156 1.15625 -1.578125 C 1.09375 -1.617188 0.988281 -1.640625 0.84375 -1.640625 Z M 0.546875 -0.28125 L 0.921875 -0.28125 C 1.035156 -0.28125 1.125 -0.300781 1.1875 -0.34375 C 1.25 -0.394531 1.28125 -0.46875 1.28125 -0.5625 C 1.28125 -0.738281 1.15625 -0.828125 0.90625 -0.828125 L 0.546875 -0.828125 Z M 0.546875 -0.28125 "/></g></g></g><g fill="#0097b2" fill-opacity="1"><g transform="translate(39.706187, 21.81988)"><g><path d="M 1.0625 0.03125 C 0.863281 0.03125 0.691406 -0.00390625 0.546875 -0.078125 C 0.410156 -0.160156 0.304688 -0.269531 0.234375 -0.40625 C 0.160156 -0.550781 0.125 -0.726562 0.125 -0.9375 C 0.125 -1.132812 0.160156 -1.3125 0.234375 -1.46875 C 0.316406 -1.625 0.429688 -1.742188 0.578125 -1.828125 C 0.722656 -1.910156 0.894531 -1.953125 1.09375 -1.953125 C 1.269531 -1.953125 1.425781 -1.910156 1.5625 -1.828125 C 1.695312 -1.753906 1.800781 -1.644531 1.875 -1.5 C 1.945312 -1.363281 1.984375 -1.195312 1.984375 -1 C 1.984375 -0.789062 1.941406 -0.609375 1.859375 -0.453125 C 1.785156 -0.304688 1.675781 -0.1875 1.53125 -0.09375 C 1.394531 -0.0078125 1.238281 0.03125 1.0625 0.03125 Z M 1.046875 -0.296875 C 1.160156 -0.296875 1.257812 -0.320312 1.34375 -0.375 C 1.4375 -0.4375 1.503906 -0.519531 1.546875 -0.625 C 1.597656 -0.726562 1.625 -0.851562 1.625 -1 C 1.625 -1.195312 1.578125 -1.351562 1.484375 -1.46875 C 1.390625 -1.582031 1.257812 -1.640625 1.09375 -1.640625 C 0.96875 -1.640625 0.859375 -1.609375 0.765625 -1.546875 C 0.679688 -1.492188 0.613281 -1.410156 0.5625 -1.296875 C 0.507812 -1.191406 0.484375 -1.070312 0.484375 -0.9375 C 0.484375 -0.726562 0.53125 -0.566406 0.625 -0.453125 C 0.726562 -0.347656 0.867188 -0.296875 1.046875 -0.296875 Z M 1.046875 -0.296875 "/></g></g></g><g fill="#0097b2" fill-opacity="1"><g transform="translate(43.897193, 21.81988)"><g><path d="M 1.0625 0.03125 C 0.863281 0.03125 0.691406 -0.00390625 0.546875 -0.078125 C 0.410156 -0.160156 0.304688 -0.269531 0.234375 -0.40625 C 0.160156 -0.550781 0.125 -0.726562 0.125 -0.9375 C 0.125 -1.132812 0.160156 -1.3125 0.234375 -1.46875 C 0.316406 -1.625 0.429688 -1.742188 0.578125 -1.828125 C 0.722656 -1.910156 0.894531 -1.953125 1.09375 -1.953125 C 1.269531 -1.953125 1.425781 -1.910156 1.5625 -1.828125 C 1.695312 -1.753906 1.800781 -1.644531 1.875 -1.5 C 1.945312 -1.363281 1.984375 -1.195312 1.984375 -1 C 1.984375 -0.789062 1.941406 -0.609375 1.859375 -0.453125 C 1.785156 -0.304688 1.675781 -0.1875 1.53125 -0.09375 C 1.394531 -0.0078125 1.238281 0.03125 1.0625 0.03125 Z M 1.046875 -0.296875 C 1.160156 -0.296875 1.257812 -0.320312 1.34375 -0.375 C 1.4375 -0.4375 1.503906 -0.519531 1.546875 -0.625 C 1.597656 -0.726562 1.625 -0.851562 1.625 -1 C 1.625 -1.195312 1.578125 -1.351562 1.484375 -1.46875 C 1.390625 -1.582031 1.257812 -1.640625 1.09375 -1.640625 C 0.96875 -1.640625 0.859375 -1.609375 0.765625 -1.546875 C 0.679688 -1.492188 0.613281 -1.410156 0.5625 -1.296875 C 0.507812 -1.191406 0.484375 -1.070312 0.484375 -0.9375 C 0.484375 -0.726562 0.53125 -0.566406 0.625 -0.453125 C 0.726562 -0.347656 0.867188 -0.296875 1.046875 -0.296875 Z M 1.046875 -0.296875 "/></g></g></g><g fill="#0097b2" fill-opacity="1"><g transform="translate(48.0882, 21.81988)"><g><path d="M 0.203125 0 L 0.203125 -1.9375 L 0.546875 -1.9375 L 0.546875 -1.0625 L 1.359375 -1.9375 L 1.78125 -1.9375 L 0.875 -0.96875 C 0.945312 -0.925781 1.015625 -0.863281 1.078125 -0.78125 L 1.28125 -0.4375 C 1.320312 -0.382812 1.359375 -0.34375 1.390625 -0.3125 C 1.429688 -0.289062 1.476562 -0.28125 1.53125 -0.28125 C 1.601562 -0.28125 1.660156 -0.300781 1.703125 -0.34375 L 1.78125 -0.0625 C 1.75 -0.03125 1.707031 -0.0078125 1.65625 0 C 1.601562 0.0195312 1.546875 0.03125 1.484375 0.03125 C 1.285156 0.03125 1.128906 -0.0625 1.015625 -0.25 L 0.734375 -0.671875 C 0.703125 -0.710938 0.671875 -0.742188 0.640625 -0.765625 C 0.617188 -0.785156 0.585938 -0.800781 0.546875 -0.8125 L 0.546875 0 Z M 0.203125 0 "/></g></g></g><g fill="#0097b2" fill-opacity="1"><g transform="translate(51.87875, 21.81988)"><g><path d="M 0.203125 0 L 0.203125 -1.9375 L 0.546875 -1.9375 L 0.546875 0 Z M 0.203125 0 "/></g></g></g><g fill="#0097b2" fill-opacity="1"><g transform="translate(54.704936, 21.81988)"><g><path d="M 1.46875 -1.9375 L 1.8125 -1.9375 L 1.8125 0 L 1.5 0 L 0.53125 -1.34375 L 0.53125 0 L 0.203125 0 L 0.203125 -1.9375 L 0.515625 -1.9375 L 1.46875 -0.578125 Z M 1.46875 -1.9375 "/></g></g></g><g fill="#0097b2" fill-opacity="1"><g transform="translate(58.7897, 21.81988)"><g><path d="M 1.140625 -1 L 1.90625 -1 L 1.90625 0 L 1.625 0 L 1.59375 -0.203125 C 1.53125 -0.117188 1.445312 -0.0546875 1.34375 -0.015625 C 1.25 0.015625 1.144531 0.03125 1.03125 0.03125 C 0.84375 0.03125 0.679688 -0.00390625 0.546875 -0.078125 C 0.410156 -0.160156 0.304688 -0.269531 0.234375 -0.40625 C 0.160156 -0.550781 0.125 -0.722656 0.125 -0.921875 C 0.125 -1.128906 0.164062 -1.3125 0.25 -1.46875 C 0.332031 -1.625 0.453125 -1.742188 0.609375 -1.828125 C 0.765625 -1.910156 0.945312 -1.953125 1.15625 -1.953125 C 1.320312 -1.953125 1.460938 -1.921875 1.578125 -1.859375 C 1.703125 -1.796875 1.804688 -1.703125 1.890625 -1.578125 L 1.625 -1.375 C 1.570312 -1.46875 1.503906 -1.535156 1.421875 -1.578125 C 1.335938 -1.617188 1.242188 -1.640625 1.140625 -1.640625 C 1.015625 -1.640625 0.898438 -1.609375 0.796875 -1.546875 C 0.703125 -1.484375 0.625 -1.398438 0.5625 -1.296875 C 0.507812 -1.191406 0.484375 -1.070312 0.484375 -0.9375 C 0.484375 -0.726562 0.535156 -0.566406 0.640625 -0.453125 C 0.742188 -0.347656 0.882812 -0.296875 1.0625 -0.296875 C 1.144531 -0.296875 1.222656 -0.3125 1.296875 -0.34375 C 1.378906 -0.375 1.441406 -0.414062 1.484375 -0.46875 C 1.535156 -0.53125 1.5625 -0.609375 1.5625 -0.703125 L 1.5625 -0.71875 L 1.140625 -0.71875 Z M 1.140625 -1 "/></g></g></g></svg>