<svg xmlns="http://www.w3.org/2000/svg" xmlns:xlink="http://www.w3.org/1999/xlink" width="100" zoomAndPan="magnify" viewBox="0 0 75 37.5" height="50" preserveAspectRatio="xMidYMid meet" version="1.0"><defs><g/><clipPath id="6f4fd5508d"><path d="M 0.492188 0 L 74.503906 0 L 74.503906 37.007812 L 0.492188 37.007812 Z M 0.492188 0 " clip-rule="nonzero"/></clipPath><clipPath id="b0bf252722"><path d="M 2.40625 18.128906 L 72.59375 18.128906 L 72.59375 23.644531 L 2.40625 23.644531 Z M 2.40625 18.128906 " clip-rule="nonzero"/></clipPath></defs><g clip-path="url(#6f4fd5508d)"><path fill="#ffffff" d="M 0.492188 0 L 74.507812 0 L 74.507812 37.007812 L 0.492188 37.007812 Z M 0.492188 0 " fill-opacity="1" fill-rule="nonzero"/><path fill="#0096c7" d="M 0.492188 0 L 74.507812 0 L 74.507812 37.007812 L 0.492188 37.007812 Z M 0.492188 0 " fill-opacity="1" fill-rule="nonzero"/></g><g fill="#ffffff" fill-opacity="1"><g transform="translate(8.166784, 28.67523)"><g><path d="M 16.8125 -6.234375 C 16.8125 -5.015625 16.601562 -3.984375 16.1875 -3.140625 C 15.78125 -2.296875 15.238281 -1.625 14.5625 -1.125 C 13.894531 -0.625 13.128906 -0.265625 12.265625 -0.046875 C 11.410156 0.171875 10.53125 0.28125 9.625 0.28125 C 8.726562 0.28125 7.847656 0.171875 6.984375 -0.046875 C 6.117188 -0.265625 5.351562 -0.625 4.6875 -1.125 C 4.019531 -1.632812 3.476562 -2.304688 3.0625 -3.140625 C 2.644531 -3.984375 2.4375 -5.015625 2.4375 -6.234375 L 2.4375 -20.125 L 3.875 -20.125 L 3.875 -6.234375 C 3.875 -5.203125 4.035156 -4.347656 4.359375 -3.671875 C 4.691406 -3.003906 5.128906 -2.472656 5.671875 -2.078125 C 6.222656 -1.691406 6.84375 -1.414062 7.53125 -1.25 C 8.21875 -1.082031 8.914062 -1 9.625 -1 C 10.351562 -1 11.054688 -1.082031 11.734375 -1.25 C 12.421875 -1.414062 13.035156 -1.691406 13.578125 -2.078125 C 14.128906 -2.472656 14.566406 -3.003906 14.890625 -3.671875 C 15.210938 -4.347656 15.375 -5.203125 15.375 -6.234375 L 15.375 -20.125 L 16.8125 -20.125 Z M 16.8125 -6.234375 "/></g></g></g><g fill="#ffffff" fill-opacity="1"><g transform="translate(27.43241, 28.67523)"><g><path d="M 5.125 0 L 0.859375 -14.375 L 2.359375 -14.375 L 5.84375 -2.59375 L 9.3125 -14.375 L 10.8125 -14.375 L 14.28125 -2.59375 L 17.765625 -14.375 L 19.265625 -14.375 L 15 0 L 13.5625 0 L 10.0625 -11.90625 L 6.5625 0 Z M 5.125 0 "/></g></g></g><g fill="#ffffff" fill-opacity="1"><g transform="translate(47.560676, 28.67523)"><g><path d="M 16.8125 -6.234375 C 16.8125 -5.015625 16.601562 -3.984375 16.1875 -3.140625 C 15.78125 -2.296875 15.238281 -1.625 14.5625 -1.125 C 13.894531 -0.625 13.128906 -0.265625 12.265625 -0.046875 C 11.410156 0.171875 10.53125 0.28125 9.625 0.28125 C 8.726562 0.28125 7.847656 0.171875 6.984375 -0.046875 C 6.117188 -0.265625 5.351562 -0.625 4.6875 -1.125 C 4.019531 -1.632812 3.476562 -2.304688 3.0625 -3.140625 C 2.644531 -3.984375 2.4375 -5.015625 2.4375 -6.234375 L 2.4375 -20.125 L 3.875 -20.125 L 3.875 -6.234375 C 3.875 -5.203125 4.035156 -4.347656 4.359375 -3.671875 C 4.691406 -3.003906 5.128906 -2.472656 5.671875 -2.078125 C 6.222656 -1.691406 6.84375 -1.414062 7.53125 -1.25 C 8.21875 -1.082031 8.914062 -1 9.625 -1 C 10.351562 -1 11.054688 -1.082031 11.734375 -1.25 C 12.421875 -1.414062 13.035156 -1.691406 13.578125 -2.078125 C 14.128906 -2.472656 14.566406 -3.003906 14.890625 -3.671875 C 15.210938 -4.347656 15.375 -5.203125 15.375 -6.234375 L 15.375 -20.125 L 16.8125 -20.125 Z M 16.8125 -6.234375 "/></g></g></g><g clip-path="url(#b0bf252722)"><path fill="#0096c7" d="M 2.40625 18.128906 L 72.59375 18.128906 L 72.59375 23.644531 L 2.40625 23.644531 Z M 2.40625 18.128906 " fill-opacity="1" fill-rule="nonzero"/></g><g fill="#ffffff" fill-opacity="1"><g transform="translate(14.169693, 21.730281)"><g><path d="M 0.203125 0 L 0.203125 -1.9375 L 0.546875 -1.9375 L 0.546875 -1.125 L 1.46875 -1.125 L 1.46875 -1.9375 L 1.828125 -1.9375 L 1.828125 0 L 1.46875 0 L 1.46875 -0.828125 L 0.546875 -0.828125 L 0.546875 0 Z M 0.203125 0 "/></g></g></g><g fill="#ffffff" fill-opacity="1"><g transform="translate(18.263388, 21.730281)"><g><path d="M 1.0625 0.03125 C 0.863281 0.03125 0.691406 -0.00390625 0.546875 -0.078125 C 0.410156 -0.160156 0.304688 -0.269531 0.234375 -0.40625 C 0.160156 -0.550781 0.125 -0.726562 0.125 -0.9375 C 0.125 -1.132812 0.160156 -1.3125 0.234375 -1.46875 C 0.316406 -1.625 0.429688 -1.742188 0.578125 -1.828125 C 0.722656 -1.910156 0.894531 -1.953125 1.09375 -1.953125 C 1.269531 -1.953125 1.425781 -1.910156 1.5625 -1.828125 C 1.695312 -1.753906 1.800781 -1.644531 1.875 -1.5 C 1.945312 -1.363281 1.984375 -1.195312 1.984375 -1 C 1.984375 -0.789062 1.941406 -0.609375 1.859375 -0.453125 C 1.785156 -0.304688 1.675781 -0.1875 1.53125 -0.09375 C 1.394531 -0.0078125 1.238281 0.03125 1.0625 0.03125 Z M 1.046875 -0.296875 C 1.160156 -0.296875 1.257812 -0.320312 1.34375 -0.375 C 1.4375 -0.4375 1.503906 -0.519531 1.546875 -0.625 C 1.597656 -0.726562 1.625 -0.851562 1.625 -1 C 1.625 -1.195312 1.578125 -1.351562 1.484375 -1.46875 C 1.390625 -1.582031 1.257812 -1.640625 1.09375 -1.640625 C 0.96875 -1.640625 0.859375 -1.609375 0.765625 -1.546875 C 0.679688 -1.492188 0.613281 -1.410156 0.5625 -1.296875 C 0.507812 -1.191406 0.484375 -1.070312 0.484375 -0.9375 C 0.484375 -0.726562 0.53125 -0.566406 0.625 -0.453125 C 0.726562 -0.347656 0.867188 -0.296875 1.046875 -0.296875 Z M 1.046875 -0.296875 "/></g></g></g><g fill="#ffffff" fill-opacity="1"><g transform="translate(22.452385, 21.730281)"><g><path d="M 1.59375 -1.9375 L 1.5625 -1.625 L 0.953125 -1.625 L 0.953125 0 L 0.609375 0 L 0.609375 -1.625 L -0.015625 -1.625 L -0.015625 -1.9375 Z M 1.59375 -1.9375 "/></g></g></g><g fill="#ffffff" fill-opacity="1"><g transform="translate(26.088634, 21.730281)"><g><path d="M 1.4375 -1.625 L 0.546875 -1.625 L 0.546875 -1.125 L 1.390625 -1.125 L 1.390625 -0.828125 L 0.546875 -0.828125 L 0.546875 -0.296875 L 1.46875 -0.296875 L 1.453125 0 L 0.203125 0 L 0.203125 -1.9375 L 1.4375 -1.9375 Z M 1.4375 -1.625 "/></g></g></g><g fill="#ffffff" fill-opacity="1"><g transform="translate(29.700377, 21.730281)"><g><path d="M 0.203125 0 L 0.203125 -1.9375 L 0.546875 -1.9375 L 0.546875 -0.3125 L 1.40625 -0.3125 L 1.390625 0 Z M 0.203125 0 "/></g></g></g><g fill="#ffffff" fill-opacity="1"><g transform="translate(33.173254, 21.730281)"><g/></g></g><g fill="#ffffff" fill-opacity="1"><g transform="translate(35.908228, 21.730281)"><g><path d="M 0.203125 0 L 0.203125 -1.9375 L 0.84375 -1.9375 C 1.082031 -1.9375 1.265625 -1.890625 1.390625 -1.796875 C 1.523438 -1.703125 1.59375 -1.570312 1.59375 -1.40625 C 1.59375 -1.3125 1.570312 -1.226562 1.53125 -1.15625 C 1.488281 -1.082031 1.425781 -1.023438 1.34375 -0.984375 C 1.425781 -0.941406 1.492188 -0.882812 1.546875 -0.8125 C 1.597656 -0.738281 1.625 -0.648438 1.625 -0.546875 C 1.625 -0.378906 1.5625 -0.242188 1.4375 -0.140625 C 1.3125 -0.046875 1.144531 0 0.9375 0 Z M 0.84375 -1.640625 L 0.546875 -1.640625 L 0.546875 -1.125 L 0.84375 -1.125 C 0.976562 -1.125 1.078125 -1.144531 1.140625 -1.1875 C 1.210938 -1.226562 1.25 -1.296875 1.25 -1.390625 C 1.25 -1.472656 1.21875 -1.535156 1.15625 -1.578125 C 1.09375 -1.617188 0.988281 -1.640625 0.84375 -1.640625 Z M 0.546875 -0.28125 L 0.921875 -0.28125 C 1.035156 -0.28125 1.125 -0.300781 1.1875 -0.34375 C 1.25 -0.394531 1.28125 -0.46875 1.28125 -0.5625 C 1.28125 -0.738281 1.15625 -0.828125 0.90625 -0.828125 L 0.546875 -0.828125 Z M 0.546875 -0.28125 "/></g></g></g><g fill="#ffffff" fill-opacity="1"><g transform="translate(39.705129, 21.730281)"><g><path d="M 1.0625 0.03125 C 0.863281 0.03125 0.691406 -0.00390625 0.546875 -0.078125 C 0.410156 -0.160156 0.304688 -0.269531 0.234375 -0.40625 C 0.160156 -0.550781 0.125 -0.726562 0.125 -0.9375 C 0.125 -1.132812 0.160156 -1.3125 0.234375 -1.46875 C 0.316406 -1.625 0.429688 -1.742188 0.578125 -1.828125 C 0.722656 -1.910156 0.894531 -1.953125 1.09375 -1.953125 C 1.269531 -1.953125 1.425781 -1.910156 1.5625 -1.828125 C 1.695312 -1.753906 1.800781 -1.644531 1.875 -1.5 C 1.945312 -1.363281 1.984375 -1.195312 1.984375 -1 C 1.984375 -0.789062 1.941406 -0.609375 1.859375 -0.453125 C 1.785156 -0.304688 1.675781 -0.1875 1.53125 -0.09375 C 1.394531 -0.0078125 1.238281 0.03125 1.0625 0.03125 Z M 1.046875 -0.296875 C 1.160156 -0.296875 1.257812 -0.320312 1.34375 -0.375 C 1.4375 -0.4375 1.503906 -0.519531 1.546875 -0.625 C 1.597656 -0.726562 1.625 -0.851562 1.625 -1 C 1.625 -1.195312 1.578125 -1.351562 1.484375 -1.46875 C 1.390625 -1.582031 1.257812 -1.640625 1.09375 -1.640625 C 0.96875 -1.640625 0.859375 -1.609375 0.765625 -1.546875 C 0.679688 -1.492188 0.613281 -1.410156 0.5625 -1.296875 C 0.507812 -1.191406 0.484375 -1.070312 0.484375 -0.9375 C 0.484375 -0.726562 0.53125 -0.566406 0.625 -0.453125 C 0.726562 -0.347656 0.867188 -0.296875 1.046875 -0.296875 Z M 1.046875 -0.296875 "/></g></g></g><g fill="#ffffff" fill-opacity="1"><g transform="translate(43.894127, 21.730281)"><g><path d="M 1.0625 0.03125 C 0.863281 0.03125 0.691406 -0.00390625 0.546875 -0.078125 C 0.410156 -0.160156 0.304688 -0.269531 0.234375 -0.40625 C 0.160156 -0.550781 0.125 -0.726562 0.125 -0.9375 C 0.125 -1.132812 0.160156 -1.3125 0.234375 -1.46875 C 0.316406 -1.625 0.429688 -1.742188 0.578125 -1.828125 C 0.722656 -1.910156 0.894531 -1.953125 1.09375 -1.953125 C 1.269531 -1.953125 1.425781 -1.910156 1.5625 -1.828125 C 1.695312 -1.753906 1.800781 -1.644531 1.875 -1.5 C 1.945312 -1.363281 1.984375 -1.195312 1.984375 -1 C 1.984375 -0.789062 1.941406 -0.609375 1.859375 -0.453125 C 1.785156 -0.304688 1.675781 -0.1875 1.53125 -0.09375 C 1.394531 -0.0078125 1.238281 0.03125 1.0625 0.03125 Z M 1.046875 -0.296875 C 1.160156 -0.296875 1.257812 -0.320312 1.34375 -0.375 C 1.4375 -0.4375 1.503906 -0.519531 1.546875 -0.625 C 1.597656 -0.726562 1.625 -0.851562 1.625 -1 C 1.625 -1.195312 1.578125 -1.351562 1.484375 -1.46875 C 1.390625 -1.582031 1.257812 -1.640625 1.09375 -1.640625 C 0.96875 -1.640625 0.859375 -1.609375 0.765625 -1.546875 C 0.679688 -1.492188 0.613281 -1.410156 0.5625 -1.296875 C 0.507812 -1.191406 0.484375 -1.070312 0.484375 -0.9375 C 0.484375 -0.726562 0.53125 -0.566406 0.625 -0.453125 C 0.726562 -0.347656 0.867188 -0.296875 1.046875 -0.296875 Z M 1.046875 -0.296875 "/></g></g></g><g fill="#ffffff" fill-opacity="1"><g transform="translate(48.083125, 21.730281)"><g><path d="M 0.203125 0 L 0.203125 -1.9375 L 0.546875 -1.9375 L 0.546875 -1.0625 L 1.359375 -1.9375 L 1.78125 -1.9375 L 0.875 -0.96875 C 0.945312 -0.925781 1.015625 -0.863281 1.078125 -0.78125 L 1.28125 -0.4375 C 1.320312 -0.382812 1.359375 -0.34375 1.390625 -0.3125 C 1.429688 -0.289062 1.476562 -0.28125 1.53125 -0.28125 C 1.601562 -0.28125 1.660156 -0.300781 1.703125 -0.34375 L 1.78125 -0.0625 C 1.75 -0.03125 1.707031 -0.0078125 1.65625 0 C 1.601562 0.0195312 1.546875 0.03125 1.484375 0.03125 C 1.285156 0.03125 1.128906 -0.0625 1.015625 -0.25 L 0.734375 -0.671875 C 0.703125 -0.710938 0.671875 -0.742188 0.640625 -0.765625 C 0.617188 -0.785156 0.585938 -0.800781 0.546875 -0.8125 L 0.546875 0 Z M 0.203125 0 "/></g></g></g><g fill="#ffffff" fill-opacity="1"><g transform="translate(51.871857, 21.730281)"><g><path d="M 0.203125 0 L 0.203125 -1.9375 L 0.546875 -1.9375 L 0.546875 0 Z M 0.203125 0 "/></g></g></g><g fill="#ffffff" fill-opacity="1"><g transform="translate(54.696689, 21.730281)"><g><path d="M 1.46875 -1.9375 L 1.8125 -1.9375 L 1.8125 0 L 1.5 0 L 0.53125 -1.34375 L 0.53125 0 L 0.203125 0 L 0.203125 -1.9375 L 0.515625 -1.9375 L 1.46875 -0.578125 Z M 1.46875 -1.9375 "/></g></g></g><g fill="#ffffff" fill-opacity="1"><g transform="translate(58.779495, 21.730281)"><g><path d="M 1.140625 -1 L 1.90625 -1 L 1.90625 0 L 1.625 0 L 1.59375 -0.203125 C 1.53125 -0.117188 1.445312 -0.0546875 1.34375 -0.015625 C 1.25 0.015625 1.144531 0.03125 1.03125 0.03125 C 0.84375 0.03125 0.679688 -0.00390625 0.546875 -0.078125 C 0.410156 -0.160156 0.304688 -0.269531 0.234375 -0.40625 C 0.160156 -0.550781 0.125 -0.722656 0.125 -0.921875 C 0.125 -1.128906 0.164062 -1.3125 0.25 -1.46875 C 0.332031 -1.625 0.453125 -1.742188 0.609375 -1.828125 C 0.765625 -1.910156 0.945312 -1.953125 1.15625 -1.953125 C 1.320312 -1.953125 1.460938 -1.921875 1.578125 -1.859375 C 1.703125 -1.796875 1.804688 -1.703125 1.890625 -1.578125 L 1.625 -1.375 C 1.570312 -1.46875 1.503906 -1.535156 1.421875 -1.578125 C 1.335938 -1.617188 1.242188 -1.640625 1.140625 -1.640625 C 1.015625 -1.640625 0.898438 -1.609375 0.796875 -1.546875 C 0.703125 -1.484375 0.625 -1.398438 0.5625 -1.296875 C 0.507812 -1.191406 0.484375 -1.070312 0.484375 -0.9375 C 0.484375 -0.726562 0.535156 -0.566406 0.640625 -0.453125 C 0.742188 -0.347656 0.882812 -0.296875 1.0625 -0.296875 C 1.144531 -0.296875 1.222656 -0.3125 1.296875 -0.34375 C 1.378906 -0.375 1.441406 -0.414062 1.484375 -0.46875 C 1.535156 -0.53125 1.5625 -0.609375 1.5625 -0.703125 L 1.5625 -0.71875 L 1.140625 -0.71875 Z M 1.140625 -1 "/></g></g></g></svg>